<svg width="712" height="712" viewBox="0 0 712 712" fill="none" xmlns="http://www.w3.org/2000/svg">
<path d="M552.04 0H159.9C71.5897 0 0 71.5896 0 159.9V552.04C0 640.35 71.5897 711.94 159.9 711.94H552.04C640.35 711.94 711.94 640.35 711.94 552.04V159.9C711.94 71.5896 640.35 0 552.04 0Z" fill="#E85A24"/>
<path d="M291.482 208.602L101.724 397.49C66.092 432.959 66.092 490.466 101.724 525.935C137.356 561.404 236.667 353.122 356 353.122C475.333 353.122 574.644 561.403 610.276 525.935C645.908 490.466 645.908 432.959 610.276 397.49L420.518 208.602C384.886 173.133 327.114 173.133 291.482 208.602Z" fill="#A43D16"/>
</svg>
